<!DOCTYPE svg PUBLIC "-//W3C//DTD SVG 1.1//EN" "http://www.w3.org/Graphics/SVG/1.1/DTD/svg11.dtd">
<!-- Uploaded to: SVG Repo, www.svgrepo.com, Transformed by: SVG Repo Mixer Tools -->
<svg fill="#fff" width="800px" height="800px" viewBox="0 0 24 24" xmlns="http://www.w3.org/2000/svg" stroke="#fff">
<g id="SVGRepo_bgCarrier" stroke-width="0"/>
<g id="SVGRepo_tracerCarrier" stroke-linecap="round" stroke-linejoin="round"/>
<g id="SVGRepo_iconCarrier">
<path d="M13,4V20a1,1,0,0,1-2,0V4a1,1,0,0,1,2,0ZM8,5A1,1,0,0,0,7,6V18a1,1,0,0,0,2,0V6A1,1,0,0,0,8,5ZM4,7A1,1,0,0,0,3,8v8a1,1,0,0,0,2,0V8A1,1,0,0,0,4,7ZM16,5a1,1,0,0,0-1,1V18a1,1,0,0,0,2,0V6A1,1,0,0,0,16,5Zm4,2a1,1,0,0,0-1,1v8a1,1,0,0,0,2,0V8A1,1,0,0,0,20,7Z"/>
</g>
</svg>